<?xml version="1.0"?>
<svg xmlns="http://www.w3.org/2000/svg" xmlns:xlink="http://www.w3.org/1999/xlink" xmlns:svgjs="http://svgjs.com/svgjs" version="1.1" width="512" height="512" x="0" y="0" viewBox="0 0 546.034 546.034" style="enable-background:new 0 0 512 512" xml:space="preserve" class=""><g>
<g xmlns="http://www.w3.org/2000/svg">
	<g>
		<path d="M456.827,364.992c28.479-38.67,44.333-85.859,44.333-135.757C501.16,102.836,398.324,0,271.921,0    C145.519,0,42.687,102.836,42.687,229.235c0,50.306,16.132,97.855,45.052,136.701c-27.071,17.413-45.052,47.78-45.052,82.293    c0,53.93,43.876,97.806,97.802,97.806c53.93,0,97.806-43.876,97.806-97.806c0-36.214-21.044-64.88-49.829-84.913    c-30.776-21.42-54.672-47.943-66.671-84.174c-5.32-16.071-8.001-32.983-8.001-49.907c0-87.194,70.935-158.133,158.128-158.133    c87.194,0,158.132,70.935,158.132,158.133c0,27.846-7.331,55.52-21.354,79.596c-15.688,26.937-39.882,43.856-63.786,62.727    c-23.285,18.38-37.178,47.01-37.178,76.671c0,53.93,43.877,97.806,97.807,97.806c53.929,0,97.806-43.876,97.806-97.806    C503.348,413.096,484.718,382.243,456.827,364.992z M140.488,421.529c3.264,0,6.381,0.616,9.274,1.697    c0.294,0.184,0.58,0.379,0.873,0.562l0.126-0.199c9.637,4.035,16.426,13.558,16.426,24.639c0,14.721-11.979,26.699-26.7,26.699    s-26.695-11.979-26.695-26.699S125.768,421.529,140.488,421.529z M405.542,474.928c-14.721,0-26.7-11.979-26.7-26.699    s11.979-26.699,26.7-26.699c14.72,0,26.699,11.979,26.699,26.699S420.267,474.928,405.542,474.928z" fill="#ffffff" data-original="#000000" style="" class=""/>
	</g>
</g>
<g xmlns="http://www.w3.org/2000/svg">
</g>
<g xmlns="http://www.w3.org/2000/svg">
</g>
<g xmlns="http://www.w3.org/2000/svg">
</g>
<g xmlns="http://www.w3.org/2000/svg">
</g>
<g xmlns="http://www.w3.org/2000/svg">
</g>
<g xmlns="http://www.w3.org/2000/svg">
</g>
<g xmlns="http://www.w3.org/2000/svg">
</g>
<g xmlns="http://www.w3.org/2000/svg">
</g>
<g xmlns="http://www.w3.org/2000/svg">
</g>
<g xmlns="http://www.w3.org/2000/svg">
</g>
<g xmlns="http://www.w3.org/2000/svg">
</g>
<g xmlns="http://www.w3.org/2000/svg">
</g>
<g xmlns="http://www.w3.org/2000/svg">
</g>
<g xmlns="http://www.w3.org/2000/svg">
</g>
<g xmlns="http://www.w3.org/2000/svg">
</g>
</g></svg>
