<?xml version="1.0"?>
<svg xmlns="http://www.w3.org/2000/svg" xmlns:xlink="http://www.w3.org/1999/xlink" xmlns:svgjs="http://svgjs.com/svgjs" version="1.1" width="512" height="512" x="0" y="0" viewBox="0 0 271.953 271.953" style="enable-background:new 0 0 512 512" xml:space="preserve" class=""><g>
<g xmlns="http://www.w3.org/2000/svg">
	<g>
		<path style="" d="M135.977,271.953c75.097,0,135.977-60.879,135.977-135.977S211.074,0,135.977,0S0,60.879,0,135.977    S60.879,271.953,135.977,271.953z M135.977,21.756c62.979,0,114.22,51.241,114.22,114.22s-51.241,114.22-114.22,114.22    s-114.22-51.241-114.22-114.22S72.992,21.756,135.977,21.756z" fill="#ffffff" data-original="#010002" class=""/>
		<path style="" d="M110.707,200.114c7.511,0,13.598-6.086,13.598-13.598V83.174c0-7.511-6.086-13.598-13.598-13.598    c-7.511,0-13.598,6.086-13.598,13.598v103.342C97.109,194.028,103.195,200.114,110.707,200.114z" fill="#ffffff" data-original="#010002" class=""/>
		<path style="" d="M165.097,200.114c7.511,0,13.598-6.086,13.598-13.598V83.174c0-7.511-6.086-13.598-13.598-13.598    S151.5,75.663,151.5,83.174v103.342C151.5,194.028,157.586,200.114,165.097,200.114z" fill="#ffffff" data-original="#010002" class=""/>
	</g>
</g>
<g xmlns="http://www.w3.org/2000/svg">
</g>
<g xmlns="http://www.w3.org/2000/svg">
</g>
<g xmlns="http://www.w3.org/2000/svg">
</g>
<g xmlns="http://www.w3.org/2000/svg">
</g>
<g xmlns="http://www.w3.org/2000/svg">
</g>
<g xmlns="http://www.w3.org/2000/svg">
</g>
<g xmlns="http://www.w3.org/2000/svg">
</g>
<g xmlns="http://www.w3.org/2000/svg">
</g>
<g xmlns="http://www.w3.org/2000/svg">
</g>
<g xmlns="http://www.w3.org/2000/svg">
</g>
<g xmlns="http://www.w3.org/2000/svg">
</g>
<g xmlns="http://www.w3.org/2000/svg">
</g>
<g xmlns="http://www.w3.org/2000/svg">
</g>
<g xmlns="http://www.w3.org/2000/svg">
</g>
<g xmlns="http://www.w3.org/2000/svg">
</g>
</g></svg>
